<svg id="Слой_2" data-name="Слой 2" xmlns="http://www.w3.org/2000/svg" viewBox="0 0 1020 535"><defs><style>.cls-1{fill:#00b905;}</style></defs><polygon class="cls-1" points="650.61 303.04 672.65 312.31 699.52 260.13 699.52 244.09 676.57 235.61 671.48 247.35 671.61 263.65 664.7 273.31 656.48 279.57 650.61 287.65 650.61 303.04"/><polygon class="cls-1" points="67.83 77.13 85.83 84.17 85.83 91.22 91.83 93.31 99.78 77.13 123.26 77.13 129 72.96 235.3 74.13 235.3 90.83 272.97 89.56 272.97 109.02 293.02 108.63 293.02 29.39 287.1 29.15 287.05 22.94 269.84 22.94 269.84 41.91 267.69 44.26 249.29 44.16 239.9 34.09 84.95 32.87 67.83 64.87 67.83 77.13"/><polygon class="cls-1" points="337.83 37.8 337.83 82.41 381.06 82.41 381.06 134.26 407.67 134.26 407.67 80.85 447.98 80.85 447.98 36.83 337.83 37.8"/><polygon class="cls-1" points="469.04 20.91 490.17 20.91 490.17 38.78 574.3 39.44 574.3 91.09 554.61 91.09 544.3 85.54 542.61 91.09 494.22 91.09 503.61 98.65 503.94 134.46 494.64 151.28 476.94 137.1 477.03 132.79 472.04 129.37 458.84 129.47 458.84 36.83 469.3 36.83 469.04 20.91"/><polygon class="cls-1" points="600.52 40.09 599.87 89.78 611.87 89.78 611.87 96.83 658.3 96.83 658.3 93.17 667.17 93.04 667.17 40.09 600.52 40.09"/><polygon class="cls-1" points="709.89 17.85 736.11 17.85 736.11 35.85 758.15 35.85 758.15 72.96 736.96 72.96 736.96 74.91 725.15 74.91 724.83 96.04 691.04 96.04 691.04 31.87 710.09 31.74 709.89 17.85"/><polygon class="cls-1" points="691.04 136.81 705.07 136.81 705.07 146 728.93 146 742.34 152.16 759.95 152.16 759.95 72.83 736.96 72.96 736.76 100.02 724.6 99.83 724.83 96.04 691.04 96.04 691.04 136.81"/><polygon class="cls-1" points="782.15 38.78 909.07 38.85 909.07 69.44 901.7 69.44 901.57 123.7 881.09 123.7 881.74 67.87 859.17 67.74 859.57 126.31 838.3 126.31 838.43 69.7 813.26 69.04 813.26 122.39 792.13 122.52 792.65 67.35 782.15 67.35 782.15 38.78"/><polygon class="cls-1" points="935.35 46.22 1003.43 46.22 1009.04 53.65 1009.04 71.78 962.93 178.97 946.99 172.12 947.09 158.13 978.98 79.67 935.35 80.26 935.35 46.22"/><polygon class="cls-1" points="850.96 182.78 887.74 198.18 900.78 172.87 900.91 165.79 864.13 151.22 850.96 176 850.96 182.78"/><polygon class="cls-1" points="910.43 179.91 920.61 161.65 957.6 176.68 957 193.35 910.83 292.61 900.91 289.09 897.91 297.7 888.26 293 887.22 294.44 881.48 291.04 880.3 292.48 858.78 285.44 858.78 281.39 840.65 274.74 840.65 266.52 764.87 237.57 764.87 231.04 758.87 231.63 783.85 180.83 792.57 180.75 798.1 186.01 798 205.19 824.32 215.95 833.22 204.31 844.08 204.31 850.73 210.22 850.58 228.27 900.91 242.91 924.91 199.09 910.04 193.74 910.43 179.91"/><polygon class="cls-1" points="779.35 264.31 755.74 311.52 755.74 334.74 870.2 380 901.17 317.65 901.17 299.13 833.48 275.65 809.22 277.22 779.35 264.31"/><polygon class="cls-1" points="517.96 119.26 508.83 138.96 510 138.96 510 159.04 634.43 207.04 661.3 155.91 661.3 132.18 652.17 125.65 641.74 126.83 622.7 159.44 607.04 153.44 626.32 120.66 593.74 105.21 573 140.43 554.02 132.7 564.1 114.99 563.51 91.09 554.61 91.09 544.3 85.54 525.95 122.03 517.96 119.26"/><polygon class="cls-1" points="708.98 154.41 733.83 164.78 733.83 181.71 702.65 244.09 679.11 235.41 679.11 216.7 687.39 202.09 693.39 203.78 704.74 183.7 702.57 182.69 702.62 167.28 708.98 154.41"/><polygon class="cls-1" points="530.05 435.66 515.97 430.97 500.41 461.49 500.41 482.43 585.13 515.49 604.11 479.39 604.11 457.48 577.99 448.97 568.89 468.53 529.86 453.27 530.05 435.66"/><polygon class="cls-1" points="577.99 448.97 575.74 447.31 596.61 405.57 580.43 399.57 578.35 404.26 573.39 402.18 573.39 377.65 584.35 361.74 614.61 374.52 614.87 360.96 623.97 343.61 603.91 335.59 604.11 328.06 613.3 314 634.34 323.36 639.39 314 661.3 322.15 661.3 350.07 640.11 384.5 604.11 457.48 577.99 448.97"/><polygon class="cls-1" points="8.87 202.09 33.39 211.74 86.35 106.87 85.83 84.17 67.83 77.13 62.35 74.78 8.87 182.78 8.87 202.09"/><polygon class="cls-1" points="88.56 148.35 284.71 224.75 294.78 203.78 294.78 196.35 238.96 175.87 238.96 167.91 165.39 138.96 162 146.52 99.91 122.26 88.56 140 88.56 148.35"/><polygon class="cls-1" points="528.78 199.25 528.78 209.13 569.48 225.31 580.57 209.65 580.57 200.65 537.78 184.09 528.78 199.25"/><polygon class="cls-1" points="419.48 170.78 408 193.48 411.39 195.31 410.61 212 456 229.48 466.7 212 466.7 195.31 479.74 169.74 479.74 153.83 482.09 149.91 467.22 140 452.09 138.7 433.83 175.22 419.48 170.78"/><polygon class="cls-1" points="561.07 253.61 553.04 265.35 553.04 273.96 577.11 283.74 585.07 268.68 585.07 262.22 561.07 253.61"/><polygon class="cls-1" points="242.94 380.2 326.87 413.46 341.74 383.91 341.74 364.15 323.74 356.91 319.44 366.5 274.24 349.87 274.83 337.94 258 331.09 242.94 360.44 242.94 380.2"/><polygon class="cls-1" points="101.74 325.74 124.44 334.87 128.87 331.09 198.78 359.13 196.96 363.83 226.17 375.57 236.61 355.48 236.61 335.13 139.56 297.57 143.48 292.09 142.96 273.31 123.65 264.7 101.74 307.22 101.74 325.74"/><polygon class="cls-1" points="18.52 256.35 33.52 262.74 37.17 256.35 65.74 267.5 65.74 278.39 79.83 283.48 84.78 275 90.13 277.48 98.87 261.31 98.87 240.04 22.24 210.18 12.46 223.87 12.46 248.33 18.65 250.68 18.52 256.35"/><polygon class="cls-1" points="267.91 325.48 295.83 335.65 314.87 296.52 344.35 308 347.22 299.91 366 307.74 366 316.87 417.65 336.7 420.26 331.09 425.74 334.09 422.35 340.87 425.74 340.87 425.74 359.39 460.96 372.27 471.91 350.78 488.87 357.57 488.87 363.83 535.3 381.31 537.91 376.61 543.39 378.44 550.17 365.39 550.17 351.04 563.22 324.18 567.91 323.65 577.3 304.09 577.3 289.74 536.09 273.31 528.26 290 528.52 310.35 532.43 310.61 521.22 334.87 482.35 320.13 506.87 277.22 506.61 262.09 510 262.09 473.74 246.7 463.04 264.7 463.3 278.26 444.52 306.44 405.65 289.22 417.91 267.5 430.17 272 438.26 257.13 438 236 401.41 222.31 374.22 277.87 329.02 261.04 341.74 237.76 367.56 247.94 377.74 230.33 377.35 209.59 324.91 187.09 263.48 307.22 268.96 306.31 267.91 325.48"/></svg>